<?xml version="1.0" encoding="UTF-8" ?>
<!DOCTYPE svg PUBLIC "-//W3C//DTD SVG 1.1//EN" "http://www.w3.org/Graphics/SVG/1.1/DTD/svg11.dtd">
<svg width="499pt" height="501pt" viewBox="0 0 499 501" version="1.1" xmlns="http://www.w3.org/2000/svg">
<g id="#feffffff">
</g>
<g id="#000100ff">
<path fill="#000100" opacity="1.00" d=" M 123.41 66.40 C 134.76 58.45 149.66 55.58 163.05 59.40 C 176.64 63.10 188.61 72.93 194.04 86.03 C 199.65 98.52 199.17 113.59 192.86 125.73 C 185.81 139.48 171.55 149.12 156.23 150.87 C 156.17 167.59 156.15 184.32 156.25 201.05 C 168.37 202.12 179.52 208.65 187.53 217.63 C 216.59 196.48 246.13 175.98 275.34 155.02 C 289.16 145.46 302.65 135.41 316.56 125.96 C 311.06 115.99 309.66 103.92 312.57 92.92 C 315.95 79.55 325.63 67.96 338.18 62.24 C 350.05 56.56 364.33 56.27 376.43 61.41 C 388.20 66.10 397.78 75.91 402.27 87.76 C 407.02 99.35 406.53 112.93 401.06 124.18 C 395.75 135.69 385.37 144.57 373.42 148.62 C 355.82 154.62 334.78 149.31 322.76 134.95 C 319.43 136.45 316.72 138.93 313.73 140.97 C 273.50 169.52 233.32 198.13 193.07 226.66 C 199.59 239.11 199.71 254.62 193.19 267.11 C 236.59 297.57 279.85 328.26 323.04 359.01 C 332.33 348.81 346.18 342.84 360.01 343.42 C 371.40 343.77 382.43 348.58 390.85 356.18 C 398.82 363.72 404.19 374.09 405.32 385.04 C 406.60 397.87 402.32 411.27 393.50 420.72 C 384.64 430.71 371.35 436.53 358.02 436.45 C 346.47 436.59 335.14 431.90 326.53 424.31 C 310.84 410.74 305.93 385.84 316.86 367.88 C 274.07 336.98 230.61 306.99 187.74 276.19 C 179.85 285.68 168.37 291.79 156.18 293.46 C 156.19 310.15 156.18 326.84 156.20 343.53 C 169.16 345.33 181.63 352.13 189.25 362.90 C 197.14 373.72 200.08 388.05 196.65 401.04 C 193.94 412.38 186.51 422.31 176.84 428.72 C 166.91 435.17 154.55 437.86 142.85 435.82 C 129.05 433.44 116.39 424.76 109.50 412.53 C 104.37 403.69 102.62 393.05 104.07 382.98 C 106.02 369.22 114.69 356.57 126.86 349.86 C 132.52 346.39 139.00 344.55 145.52 343.62 C 145.33 326.92 145.54 310.22 145.42 293.53 C 131.78 291.72 119.00 284.07 111.30 272.62 C 103.80 261.80 101.68 247.61 105.26 234.99 C 110.01 216.86 126.84 202.76 145.46 200.98 C 145.45 184.29 145.50 167.60 145.43 150.92 C 132.41 149.40 120.10 142.30 112.43 131.64 C 104.87 121.54 102.02 108.18 104.49 95.85 C 106.54 84.01 113.72 73.37 123.41 66.40 Z" />
</g>
</svg>
